<svg xmlns="http://www.w3.org/2000/svg" viewBox="0 0 640 280" width="640" height="280" role="img" aria-hidden="true"><rect width="640" height="280" rx="18" fill="#F7F5F0"/><g stroke="#16417C" stroke-width="3" fill="none">
<path d="M320 34 L455 250 L185 250 Z"/><path d="M320 250 L185 34 L455 34 Z"/></g>
<g fill="#FBFAF7" stroke="#C9A063" stroke-width="2.5">
<circle cx="320" cy="34" r="17"/><circle cx="185" cy="34" r="17"/><circle cx="455" cy="34" r="17"/>
<circle cx="185" cy="250" r="17"/><circle cx="455" cy="250" r="17"/><circle cx="320" cy="250" r="17"/>
<circle cx="252" cy="142" r="17"/><circle cx="388" cy="142" r="17"/>
<circle cx="253" cy="70" r="17"/><circle cx="387" cy="70" r="17"/>
<circle cx="253" cy="214" r="17"/><circle cx="387" cy="214" r="17"/></g>
<g font-family="ui-monospace,monospace" font-size="17" font-weight="700" fill="#16417C" text-anchor="middle">
<text x="320" y="41">1</text><text x="185" y="41">7</text><text x="455" y="41">4</text>
<text x="185" y="257">6</text><text x="455" y="257">9</text><text x="320" y="257">2</text>
<text x="252" y="149">12</text><text x="388" y="149">3</text>
<text x="253" y="77">8</text><text x="387" y="77">10</text>
<text x="253" y="221">5</text><text x="387" y="221">11</text></g>
<rect x="500" y="112" width="112" height="58" rx="12" fill="#16417C"/>
<text x="556" y="150" font-family="ui-monospace,monospace" font-size="27" font-weight="800" fill="#F5D98B" text-anchor="middle">=26</text></svg>